ffmpeg version 6.0 Copyright (c) 2000-2023 the FFmpeg developers
  built with Apple clang version 13.1.6 (clang-1316.0.21.2.5)
  configuration: --prefix=/Volumes/tempdisk/sw --extra-cflags=-fno-stack-check --arch=arm64 --cc=/usr/bin/clang --enable-gpl --enable-libvmaf --enable-libbluray --enable-libopenjpeg --enable-libopus --enable-libmp3lame --enable-libx264 --enable-libx265 --enable-libvpx --enable-libwebp --enable-libass --enable-libfreetype --enable-fontconfig --enable-libtheora --enable-libvorbis --enable-libsnappy --enable-libaom --enable-libvidstab --enable-libzimg --enable-libsvtav1 --enable-libkvazaar --enable-version3 --pkg-config-flags=--static --enable-ffplay --enable-postproc --enable-nonfree --enable-neon --enable-runtime-cpudetect --disable-indev=qtkit --disable-indev=x11grab_xcb
  libavutil      58.  2.100 / 58.  2.100
  libavcodec     60.  3.100 / 60.  3.100
  libavformat    60.  3.100 / 60.  3.100
  libavdevice    60.  1.100 / 60.  1.100
  libavfilter     9.  3.100 /  9.  3.100
  libswscale      7.  1.100 /  7.  1.100
  libswresample   4. 10.100 /  4. 10.100
  libpostproc    57.  1.100 / 57.  1.100
Input #0, jpeg_pipe, from 'fd:':
  Duration: N/A, bitrate: N/A
  Stream #0:0: Video: mjpeg (Baseline), yuvj420p(pc, bt470bg/unknown/unknown), 640x360 [SAR 1:1 DAR 16:9], 25 fps, 25 tbr, 25 tbn
[out#0/mp4 @ 0x6000028d03c0] Codec AVOption preset (Encoding preset) has not been used for any stream. The most likely reason is either wrong type (e.g. a video option with no video streams) or that it is a private option of some encoder which was not actually used for any stream.
Stream mapping:
  Stream #0:0 -> #0:0 (mjpeg (native) -> h264 (h264_videotoolbox))
[swscaler @ 0x150068000] deprecated pixel format used, make sure you did set range correctly
[swscaler @ 0x158080000] deprecated pixel format used, make sure you did set range correctly
    Last message repeated 2 times
Output #0, mp4, to '/Users/arjun.bhatt/Downloads/sandbox/finals/segments/output_60s_640x360_3Output #0, mp4, to '/Users/arjun.bhatt/Downloads/sandbox/fiOutput #0, mp4, to '/Users/arjun.bhatt/Downloads/sandbox/finals/segments/output_60s_640x360_30fps/segment_48000.mp4':
  Metadata:
    encoder         : Lavf60.3.100
  Stream #0:0: Video: h264 (avc1 / 0x31637661), yuv420p(tv, bt470bg/unknown/unknown, progressive), 640x360 [SAR 1:1 DAR 16:9], q=2-31, 1200 kb/s, 30 fps, 15360 tbn
    Metadata:
      encoder         : Lavc60.3.100 h264_videotoolbox
frame=    0 fps=0.0 q=0.0 size=       0kB time=-frame=   32 fps=7.2 q=-0.0 size=       0kB time=00:00:01.06 bitrate=   0.4kbits/s speed=0.24xframeframe=   39 fps=7.8 q=-0.0 size=     256kB time=00:00:01.30 bitrate=1613.5kbits/s speed=0.26x framframe=   46 fps=8.3 q=-0.0 size=     256kB time=00:00:01.53 bitrate=1368.0kbits/s speed=0.277x framframe=   53 fps=8.8 q=-0.0 size=     256kB time=00:00:01.76 bitrate=1187.3kbits/s speed=0.292x framframe=   60 fps=9.1 q=-0.0 size=     256kB time=00:00:02.00 bitrate=1048.8kbits/s speed=0.303xframeframe=   67 fps=9.4 q=-0.0 size=     256kB time=00:00:02.23 bitrate= 939.2kbits/s speed=0.313frame=frame=   75 fps=9.8 q=-0.0 size=     256kB time=00:00:02.50 bitrate= 839.0kbits/s speed=0.327frame=frame=   83 fps= 10 q=-0.0 size=     512kB time=00:00:02.76 bitrate=1516.2kbits/s speed=0.339frame=frame=   91 fps= 11 q=-0.0 size=     512kB time=00:00:03.03 bitrate=1382.9kbits/s speed=0.35xfrfraframe=  102 fps= 11 q=-0.0 size=     512kB time=00:00:03.40 bitrate=1233.7kbits/s speed=0.37x framframe=  113 fps= 12 q=-0.0 size=     512kB time=00:00:03.76 bitrate=1113.6kbits/s speed=0.388x framframe=  122 fps= 12 q=-0.0 size=     768kB time=00:00:04.06 bitrate=1547.2kbits/s speed=0.399x ffraframe=  132 fps= 12 q=-0.0 size=     768kB time=00:00:04.40 bitrate=1430.0kbits/s speed=0.411x framframe=  143 fps= 13 q=-0.0 size=     768kB time=00:00:04.76 bitrate=1320.0kbits/s speed=0.423x framframe=  153 fps= 13 q=-0.0 size=     768kB time=00:00:05.10 bitrate=1233.7kbits/s speed=0.429x framframe=  163 fps= 13 q=-0.0 size=    1024kB time=00:00:05.43 bitrate=1544.0kbits/s speed=0.438xfframe=  161 fps= 13 q=-0.0 size=    1536kB time=00:00:05.36 bitrate=2344.7kbits/s speed=0.43x    frame=  180 fps= 14 q=-0.0 Lsize=    1754kB time=00:00:05.96 bitrate=2408.3kbits/s speed=0.475x    
video:1752kB audio:0kB subtitle:0kB other streams:0kB global headers:0kB muxing overhead: 0.091332%
bench: utime=0.519s stime=0.093s rtime=12.550s
bench: maxrss=54886400kB
audio:0kB subtitle:0kB other streams:0kB global headers:0kB muxing overhead: 0.089670%
bench: utime=0.557s stime=0.097s rtime=12.769s
bench: maxrss=51806208kB
e=    256frame=  150 fps= 10 q=-0.0 size=    5120kB time=00:00:05.00fframe=  155 fps= 10 q=-0.0 size=    256frame=  159 fps= 10 q=-0.0 size=    5376kB time=00:00:05.30fframe=  162 fps= 11 q=-0.0 size=    281frame=  167 fps= 10 q=-0.0 size=    5376kB time=00:00:05.56frame=  172 fps= 11 q=-0.0 size=    3072frame=  180 fps= 11 q=-0.0 Lsize=    6031kB time=00:00:05.96 bitrate=8281.0kbits/s speed=0.363x    
video:6030kB audiframe=  180 fps= 11 q=-0.0 Lsize=    5241kB time=00:00:05.96 bitrate=7196.3kbits/s speed=0.365x    
video:5240kB audio:0kB subtitle:0kB other streams:0kB global headers:0kB muxing overhead: 0.031497%
bench: utime=1.702s stime=0.155s rtime=16.352s
bench: maxrss=69320704kB
6s rtime=16.543s
bench: maxrss=65290240kB
